<?xml version="1.0" encoding="UTF-8"?>
<svg version="1.1" xmlns="http://www.w3.org/2000/svg" width="500" height="500">
<path d="M0 0 C3.0625 1.875 3.0625 1.875 5 5 C5.68945704 8.47577514 5.7284225 11.52861152 5 15 C2.625 18.125 2.625 18.125 0 20 C-0.66 20 -1.32 20 -2 20 C-2 39.47 -2 58.94 -2 79 C-0.68 79 0.64 79 2 79 C1.92930298 78.09290283 1.92930298 78.09290283 1.85717773 77.16748047 C1.53650954 72.45622872 1.35989634 67.76525041 1.45703125 63.04296875 C1.4722583 62.16922607 1.48748535 61.2954834 1.50317383 60.39526367 C2.13387643 57.35456432 3.29338436 56.18728843 5.625 54.1875 C7.39660789 53.4108669 9.19154587 52.68647442 11 52 C13.20394451 50.77922776 15.39031961 49.5264359 17.5625 48.25 C18.76018704 47.57771575 19.95811058 46.90585268 21.15625 46.234375 C23.91994534 44.65717257 26.60836273 42.9921657 29.28125 41.265625 C29.99466553 40.80639648 30.70808105 40.34716797 31.44311523 39.87402344 C32.82912856 38.9754538 34.20916847 38.06758492 35.58227539 37.14941406 C41.78858119 33.13435763 41.78858119 33.13435763 46 34 C48.734375 35.3984375 48.734375 35.3984375 51.75 37.375 C52.89455789 38.11136126 54.04046362 38.84563048 55.1875 39.578125 C55.79851562 39.97064453 56.40953125 40.36316406 57.0390625 40.76757812 C59.83164914 42.52267989 62.6784843 44.17856799 65.53027344 45.83520508 C68.40329245 47.50460229 71.26115371 49.19907896 74.11914062 50.89404297 C75.75176939 51.85403886 77.39818553 52.79051259 79.046875 53.72265625 C79.85640625 54.20605469 80.6659375 54.68945312 81.5 55.1875 C82.50546875 55.76564453 82.50546875 55.76564453 83.53125 56.35546875 C87.27316653 60.54522104 86.1604695 68.6534162 86.16796875 74.07421875 C86.17129715 74.92047318 86.17462555 75.7667276 86.17805481 76.6386261 C86.18309027 78.416061 86.18546419 80.19350524 86.18530273 81.97094727 C86.18750184 84.68977223 86.20572744 87.4081991 86.22460938 90.12695312 C86.22754149 91.85937362 86.2295275 93.59179603 86.23046875 95.32421875 C86.23765427 96.13469162 86.24483978 96.94516449 86.25224304 97.78019714 C86.22326248 104.91942332 86.22326248 104.91942332 84 108 C81.9609375 109.3515625 81.9609375 109.3515625 79.375 110.625 C74.37395852 113.21106487 69.62370145 116.04837746 64.875 119.0625 C59.83000735 122.25602127 54.77584331 125.3491234 49.50390625 128.16015625 C47.99721259 128.91191989 47.99721259 128.91191989 47 130 C41.81460051 130.56763249 38.54521852 129.03491321 34.25 126.375 C33.63729248 126.00963135 33.02458496 125.6442627 32.39331055 125.26782227 C31.15970299 124.53036931 29.92939475 123.78736605 28.70263672 123.03857422 C27.2276658 122.13887157 25.74172222 121.25720444 24.25390625 120.37890625 C18.90148397 117.21883613 13.6630869 113.8927268 8.4453125 110.515625 C5.79533156 108.82176309 5.79533156 108.82176309 2 107 C2 99.74 2 92.48 2 85 C0.68 85 -0.64 85 -2 85 C-2.02538517 92.43814362 -2.04288172 99.87627603 -2.05493164 107.31445312 C-2.05995589 109.84407977 -2.06677638 112.37370351 -2.07543945 114.90332031 C-2.08758853 118.54232499 -2.09324746 122.18129122 -2.09765625 125.8203125 C-2.10281754 126.94865509 -2.10797882 128.07699768 -2.11329651 129.23953247 C-2.11340981 130.83050247 -2.11340981 130.83050247 -2.11352539 132.45361328 C-2.115746 133.38182892 -2.11796661 134.31004456 -2.12025452 135.26638794 C-1.98725358 138.28975024 -1.72090093 141.05663065 -1 144 C0.5159375 145.11375 0.5159375 145.11375 2.0625 146.25 C4.26836791 147.89108048 4.91425413 148.6452705 5.5703125 151.359375 C5.77068026 155.87432844 5.491114 158.29221805 2.875 162.0625 C-0.3752334 164.25287468 -2.08281834 165 -6 165 C-10.34986291 163.5500457 -12.4325645 162.85115325 -15 159 C-15.5454104 155.93421943 -15.53808365 153.0670768 -15 150 C-12.47031526 146.71824682 -10.92268669 145.30756223 -7 144 C-7.03029297 142.78119141 -7.06058594 141.56238281 -7.09179688 140.30664062 C-7.20559365 135.70691561 -7.31677861 131.10713029 -7.42724609 126.50732422 C-7.4750561 124.53107036 -7.52353835 122.55483263 -7.57275391 120.57861328 C-7.8676622 108.71607761 -8.07700004 96.86656132 -8 85 C-8.99 85 -9.98 85 -11 85 C-10.98839844 85.9178125 -10.97679687 86.835625 -10.96484375 87.78125 C-10.95582031 89.0084375 -10.94679688 90.235625 -10.9375 91.5 C-10.92589844 92.7065625 -10.91429687 93.913125 -10.90234375 95.15625 C-10.93457031 96.4246875 -10.96679688 97.693125 -11 99 C-10.95818604 99.6698291 -10.91637207 100.3396582 -10.87329102 101.02978516 C-10.87523258 103.34800793 -11.06338588 104.869875 -12 107 C-15.03094334 109.71212371 -18.47528176 111.49182866 -22.0625 113.375 C-24.07549178 114.48858731 -26.08720167 115.60449482 -28.09765625 116.72265625 C-29.09684082 117.26937988 -30.09602539 117.81610352 -31.12548828 118.37939453 C-35.8656167 121.05180598 -40.40159424 124.04369968 -44.89868164 127.10498047 C-48.77292555 129.62717829 -51.39019755 130.72238604 -56 130 C-58.91015625 128.70703125 -58.91015625 128.70703125 -62.0625 126.8125 C-62.64177246 126.46880371 -63.22104492 126.12510742 -63.81787109 125.77099609 C-65.89003301 124.53196594 -67.94574559 123.26850321 -70 122 C-70.86898926 121.46455566 -71.73797852 120.92911133 -72.63330078 120.37744141 C-76.39134467 118.05831469 -80.14762347 115.73675541 -83.89086914 113.39379883 C-84.75446045 112.85392334 -85.61805176 112.31404785 -86.5078125 111.7578125 C-87.27754395 111.2745752 -88.04727539 110.79133789 -88.84033203 110.29345703 C-90.83777912 109.09715648 -92.91751497 108.04124251 -95 107 C-95 90.83 -95 74.66 -95 58 C-94.34 58 -93.68 58 -93 58 C-93 57.34 -93 56.68 -93 56 C-92.06994141 55.50693359 -92.06994141 55.50693359 -91.12109375 55.00390625 C-85.43393428 51.94923108 -79.84473156 48.76223488 -74.3125 45.4375 C-73.67014404 45.05158691 -73.02778809 44.66567383 -72.3659668 44.26806641 C-68.95776826 42.21040225 -65.59094274 40.10326767 -62.25 37.9375 C-59 36 -59 36 -56 36 C-56 35.34 -56 34.68 -56 34 C-52.10559362 33.74790863 -49.96707909 34.25433293 -46.6640625 36.30859375 C-45.85388672 36.80431885 -45.04371094 37.30004395 -44.20898438 37.81079102 C-43.35626953 38.34760498 -42.50355469 38.88441895 -41.625 39.4375 C-39.83604562 40.53923809 -38.04698202 41.64079884 -36.2578125 42.7421875 C-35.37254883 43.29229492 -34.48728516 43.84240234 -33.57519531 44.40917969 C-29.30802032 47.04521611 -24.98775353 49.59155846 -20.67041016 52.14428711 C-12.28056219 57.15291801 -12.28056219 57.15291801 -11.390625 59.83984375 C-11.34421875 60.53207031 -11.2978125 61.22429687 -11.25 61.9375 C-11.19457031 62.71867187 -11.13914062 63.49984375 -11.08203125 64.3046875 C-10.93289944 69.20473263 -10.9253588 74.09856126 -11 79 C-10.01 79 -9.02 79 -8 79 C-7.67 59.53 -7.34 40.06 -7 20 C-8.65 19.34 -10.3 18.68 -12 18 C-14.26828864 16.31498558 -14.89674141 15.47226799 -15.50390625 12.6953125 C-15.61214044 7.94743938 -15.56642262 5.72618284 -12.5625 1.875 C-8.62477738 -0.73770695 -4.54869707 -1.00338906 0 0 Z M-8.8125 6.1875 C-10.26103335 7.99801207 -10.26103335 7.99801207 -9.8125 10.5625 C-9.15372967 13.14441272 -9.15372967 13.14441272 -7 15 C-3.70285207 14.67028521 -2.3773161 14.3773161 0 12 C-0.32971479 8.70285207 -0.6226839 7.3773161 -3 5 C-6.80350374 4.63464916 -6.80350374 4.63464916 -8.8125 6.1875 Z M-60.875 43.5 C-62.0442 44.23578965 -63.21347293 44.97146342 -64.3828125 45.70703125 C-64.98125977 46.08682129 -65.57970703 46.46661133 -66.19628906 46.85791016 C-69.03484273 48.65525099 -71.89152903 50.42197381 -74.75 52.1875 C-75.73484375 52.79980469 -76.7196875 53.41210938 -77.734375 54.04296875 C-80.36890534 55.62179614 -83.01767642 57.13543707 -85.70410156 58.62231445 C-86.91286957 59.29191948 -86.91286957 59.29191948 -88.14605713 59.97505188 C-88.75785828 60.31328476 -89.36965942 60.65151764 -90 61 C-90.04934399 66.94481181 -90.08569282 72.88950509 -90.10986328 78.83447266 C-90.11993671 80.85793127 -90.13359595 82.88137528 -90.15087891 84.90478516 C-90.17506847 87.80895589 -90.18646949 90.71293461 -90.1953125 93.6171875 C-90.20563507 94.52556366 -90.21595764 95.43393982 -90.22659302 96.36984253 C-90.22674408 97.21056305 -90.22689514 98.05128357 -90.22705078 98.91748047 C-90.231492 99.65916473 -90.23593323 100.400849 -90.24050903 101.16500854 C-90.15684325 103.24930143 -90.15684325 103.24930143 -88 105 C-87.01 105 -86.02 105 -85 105 C-85 105.66 -85 106.32 -85 107 C-84.13955078 107.45826172 -84.13955078 107.45826172 -83.26171875 107.92578125 C-78.51274188 110.48403131 -73.82819841 113.08700513 -69.21484375 115.8828125 C-68.37671143 116.38514404 -67.5385791 116.88747559 -66.67504883 117.4050293 C-64.98932123 118.41807977 -63.31056506 119.44283204 -61.6394043 120.47973633 C-60.853479 120.94919678 -60.06755371 121.41865723 -59.2578125 121.90234375 C-58.20811279 122.54417603 -58.20811279 122.54417603 -57.13720703 123.19897461 C-54.37426808 124.23452438 -52.79481681 123.83122448 -50 123 C-47.59742861 121.78455815 -47.59742861 121.78455815 -45.25 120.25 C-42.098698 118.29145885 -38.95029641 116.39159695 -35.6875 114.625 C-25.77578924 109.58766036 -25.77578924 109.58766036 -17 103 C-16.6830536 97.06995144 -16.64316527 91.13761972 -16.5949707 85.19995117 C-16.57337957 83.19684623 -16.5392635 81.19383591 -16.49243164 79.19116211 C-16.42558056 76.30800107 -16.39799653 73.42679447 -16.37890625 70.54296875 C-16.33716026 69.20059395 -16.33716026 69.20059395 -16.29457092 67.83110046 C-16.30259579 65.4092077 -16.37234244 63.33961474 -17 61 C-20.1367633 58.14363579 -21.74238406 57 -26 57 C-26 56.34 -26 55.68 -26 55 C-27.051875 54.43732422 -27.051875 54.43732422 -28.125 53.86328125 C-33.33721728 51.05179992 -38.43042988 48.19305784 -43.34375 44.8828125 C-45.12842769 43.76481391 -45.12842769 43.76481391 -48 44 C-48 43.34 -48 42.68 -48 42 C-53.45311798 38.99138319 -55.7756804 40.25837874 -60.875 43.5 Z M35.5625 44.125 C29.2612086 48.31068043 22.86229639 51.79508136 16 55 C16 55.66 16 56.32 16 57 C15.443125 57.103125 14.88625 57.20625 14.3125 57.3125 C11.24960194 58.22309132 9.46534064 58.89069977 7 61 C6.24992341 64.12585131 6.37172629 67.21039269 6.44140625 70.41015625 C6.44373764 71.33340195 6.44606903 72.25664764 6.44847107 73.20787048 C6.45821316 75.15893802 6.48001093 77.10997704 6.51293945 79.06079102 C6.56236994 82.05462274 6.57441987 85.04681265 6.58007812 88.04101562 C6.59416291 89.9349134 6.61036688 91.82879685 6.62890625 93.72265625 C6.63426895 94.62162125 6.63963165 95.52058624 6.64515686 96.4467926 C6.66114426 97.27783005 6.67713165 98.10886749 6.69360352 98.96508789 C6.70424332 99.69772354 6.71488312 100.43035919 6.72584534 101.18519592 C6.85411077 103.24981257 6.85411077 103.24981257 9 105 C9.99 105 10.98 105 12 105 C12 105.66 12 106.32 12 107 C12.89525391 107.47566406 12.89525391 107.47566406 13.80859375 107.9609375 C19.99046277 111.2861033 26.07282602 114.75749262 32.125 118.3125 C33.26279907 118.97934814 33.26279907 118.97934814 34.42358398 119.65966797 C35.4862146 120.28639404 35.4862146 120.28639404 36.5703125 120.92578125 C37.20727051 121.30130127 37.84422852 121.67682129 38.50048828 122.0637207 C40 123 40 123 41 124 C45.57221444 124.57354633 47.90209784 123.11109831 51.625 120.5625 C56.7615894 117.0794702 56.7615894 117.0794702 60 116 C60 115.34 60 114.68 60 114 C60.51304687 113.91621094 61.02609375 113.83242188 61.5546875 113.74609375 C65.02167256 112.68827562 68.01092446 110.87636874 71.125 109.0625 C71.75792969 108.70220703 72.39085937 108.34191406 73.04296875 107.97070312 C75.63036512 106.47924216 77.87897973 105.12102027 80 103 C80.33175387 101.13264125 80.33175387 101.13264125 80.32226562 98.98095703 C80.34148071 98.15314728 80.3606958 97.32533752 80.38049316 96.47244263 C80.3932428 95.12870071 80.3932428 95.12870071 80.40625 93.7578125 C80.42335022 92.37793655 80.42335022 92.37793655 80.4407959 90.97018433 C80.45970646 89.02167368 80.47276809 87.07309891 80.48046875 85.12451172 C80.49988233 82.14307049 80.56190399 79.16438709 80.625 76.18359375 C80.63806023 74.29168307 80.64856112 72.39975264 80.65625 70.5078125 C80.6809436 69.61603302 80.70563721 68.72425354 80.7310791 67.80545044 C80.71370658 65.3912238 80.63526485 63.32966459 80 61 C76.86220195 58.14730989 75.25618175 57 71 57 C71 56.34 71 55.68 71 55 C70.33355469 54.64808594 69.66710937 54.29617187 68.98046875 53.93359375 C62.94836019 50.70240833 57.13751772 47.26076269 51.41015625 43.515625 C44.72288588 39.31033991 42.05888807 39.69996231 35.5625 44.125 Z M-8.8125 150.75 C-10.20322166 152.89205396 -10.20322166 152.89205396 -9.8125 155.125 C-9.05339164 157.19171429 -9.05339164 157.19171429 -7 159 C-4.5 159.41666667 -4.5 159.41666667 -2 159 C0.29637779 156.24104365 0.29637779 156.24104365 -0.25 153.4375 C-0.83808052 150.84999433 -0.83808052 150.84999433 -3 149 C-6.94030828 148.53693699 -6.94030828 148.53693699 -8.8125 150.75 Z " fill="#E7E7E7" transform="translate(255,169)"/>
<path d="M0 0 C1.32 0.33 2.64 0.66 4 1 C3.47413352 5.67144726 1.34033041 8.89719122 -1.25 12.6875 C-19.62105355 40.47932825 -25.76523476 74.12399565 -19.75 106.8125 C-15.93324635 123.59525889 -10.33131273 140.4353702 -0.03125 154.43359375 C1 156 1 156 1 158 C1.66 158 2.32 158 3 158 C7 163.41176471 7 163.41176471 7 166 C7.66 166 8.32 166 9 166 C10.33984375 167.3984375 10.33984375 167.3984375 11.9375 169.375 C17.31330834 175.69551106 23.37012718 181.6395213 30.33984375 186.171875 C31.21769531 186.77515625 32.09554687 187.3784375 33 188 C33 188.66 33 189.32 33 190 C33.58918213 190.12600586 34.17836426 190.25201172 34.78540039 190.38183594 C38.31528799 191.36713804 41.30300262 193.3979492 44.4375 195.25 C51.40061399 199.26635655 58.38202382 202.3916712 66 205 C66.763125 205.28359375 67.52625 205.5671875 68.3125 205.859375 C95.52913377 215.66536805 125.86115164 213.91705017 153 205 C154.0415625 204.66484375 155.083125 204.3296875 156.15625 203.984375 C163.81068997 201.29395303 170.55589301 197.5350174 177.44067383 193.30224609 C182.82009893 190 182.82009893 190 185 190 C185 189.34 185 188.68 185 188 C190.41176471 184 190.41176471 184 193 184 C193 183.34 193 182.68 193 182 C193.66 182 194.32 182 195 182 C195 181.34 195 180.68 195 180 C196.5390625 178.51953125 196.5390625 178.51953125 198.625 176.8125 C202.08787267 173.8899337 204.97510908 170.84169098 207.7734375 167.28515625 C208.17820312 166.86105469 208.58296875 166.43695313 209 166 C209.66 166 210.32 166 211 166 C211.28875 165.236875 211.5775 164.47375 211.875 163.6875 C213 161 213 161 215 158 C215.66 158 216.32 158 217 158 C217.25007812 157.31550781 217.50015625 156.63101563 217.7578125 155.92578125 C219.20530639 152.51643244 221.00159099 149.37368818 222.875 146.1875 C227.5466644 138.22080235 231.44066268 130.51431045 234.0625 121.625 C234.31854004 120.7680957 234.57458008 119.91119141 234.83837891 119.02832031 C237.3068379 110.46492026 238.78597035 101.81768901 240 93 C241.32 92.67 242.64 92.34 244 92 C247.49463524 97.24195285 245.13286272 104.03256532 244 110 C242.08177724 119.19664965 239.2029877 127.61632162 235 136 C234.39303687 137.27012028 233.78767788 138.54100791 233.18359375 139.8125 C229.07030949 148.36915319 224.54961075 156.27238237 219 164 C218.47019531 164.76828125 217.94039062 165.5365625 217.39453125 166.328125 C216.93433594 166.87984375 216.47414063 167.4315625 216 168 C215.34 168 214.68 168 214 168 C213.71125 168.598125 213.4225 169.19625 213.125 169.8125 C212 172 212 172 210 175 C209.34 175 208.68 175 208 175 C208 175.66 208 176.32 208 177 C207.34 177 206.68 177 206 177 C206 177.66 206 178.32 206 179 C205.34 179 204.68 179 204 179 C204 179.66 204 180.32 204 181 C202.5390625 182.5078125 202.5390625 182.5078125 200.625 184.125 C199.99851562 184.66382813 199.37203125 185.20265625 198.7265625 185.7578125 C197 187 197 187 195 187 C195 187.66 195 188.32 195 189 C192.84570712 190.6439852 190.7029062 192.14711462 188.4375 193.625 C187.76001709 194.0694043 187.08253418 194.51380859 186.38452148 194.97167969 C156.38515632 214.35834009 121.04973567 223.12094534 85.39453125 216.74609375 C84.27433594 216.49988281 83.15414062 216.25367188 82 216 C81.2992334 215.84934082 80.5984668 215.69868164 79.87646484 215.54345703 C61.82266712 211.55745418 46.05499757 204.36985592 30.70507812 194.13085938 C29.5525666 193.36647888 28.38932259 192.61807579 27.21679688 191.88476562 C25.777652 190.97414881 24.38352666 189.99308355 23 189 C23 188.34 23 187.68 23 187 C22.34 187 21.68 187 21 187 C21 186.34 21 185.68 21 185 C20.401875 184.71125 19.80375 184.4225 19.1875 184.125 C17 183 17 183 14 181 C14 180.34 14 179.68 14 179 C13.34 179 12.68 179 12 179 C12 178.34 12 177.68 12 177 C11.34 177 10.68 177 10 177 C10 176.34 10 175.68 10 175 C9.34 175 8.68 175 8 175 C4 170.52941176 4 170.52941176 4 168 C3.34 168 2.68 168 2 168 C-7.89558025 155.64078981 -15.19529802 141.81446733 -20.32519531 126.90112305 C-21.02406462 124.9322029 -21.79471642 122.99998031 -22.56640625 121.05859375 C-24.12641672 116.92001618 -24.93101803 112.79460274 -25.625 108.4375 C-25.74617188 107.72142578 -25.86734375 107.00535156 -25.9921875 106.26757812 C-26.34164472 104.18033092 -26.67134147 102.09060508 -27 100 C-27.18820313 98.89398438 -27.37640625 97.78796875 -27.5703125 96.6484375 C-29.32407098 81.75743366 -28.36905434 66.58010589 -25 52 C-24.8443457 51.31309082 -24.68869141 50.62618164 -24.52832031 49.91845703 C-20.19919163 31.59526867 -11.63700205 14.7319494 0 0 Z " fill="#CFCFCF" transform="translate(141,168)"/>
<path d="M0 0 C9.2716414 -0.16487228 18.16169865 0.67966391 27.296875 2.12109375 C28.42480469 2.29253906 29.55273438 2.46398437 30.71484375 2.640625 C41.46462173 4.59398442 51.31305628 8.79393899 61.296875 13.12109375 C62.27785156 13.54390625 63.25882813 13.96671875 64.26953125 14.40234375 C72.10823785 18.06651378 79.21326731 23.18935696 86.296875 28.12109375 C87.10382813 28.67539063 87.91078125 29.2296875 88.7421875 29.80078125 C89.25523437 30.23648438 89.76828125 30.6721875 90.296875 31.12109375 C90.296875 31.78109375 90.296875 32.44109375 90.296875 33.12109375 C90.83828125 33.33765625 91.3796875 33.55421875 91.9375 33.77734375 C95.11332844 35.58609372 97.50415581 38.03833174 100.046875 40.62109375 C100.55347656 41.11996094 101.06007813 41.61882812 101.58203125 42.1328125 C105.296875 45.86768236 105.296875 45.86768236 105.296875 48.12109375 C105.956875 48.12109375 106.616875 48.12109375 107.296875 48.12109375 C109.57864102 50.58805406 111.46371065 53.39384766 113.421875 56.12109375 C114.00646484 56.93473389 114.59105469 57.74837402 115.19335938 58.58666992 C128.86684451 78.04116859 138.79640757 102.14353036 138.296875 126.12109375 C136.646875 125.79109375 134.996875 125.46109375 133.296875 125.12109375 C133.13832031 124.09113281 132.97976563 123.06117188 132.81640625 122 C128.45103685 94.87877642 118.67986191 70.85154842 100.296875 50.12109375 C99.58015625 49.26128906 98.8634375 48.40148437 98.125 47.515625 C93.3989381 41.97674749 88.43917487 37.76641932 82.38671875 33.71484375 C81.69707031 33.18890625 81.00742187 32.66296875 80.296875 32.12109375 C80.296875 31.46109375 80.296875 30.80109375 80.296875 30.12109375 C79.56597656 29.8478125 78.83507812 29.57453125 78.08203125 29.29296875 C75.43057668 28.17734972 73.16468697 26.90083326 70.734375 25.37109375 C52.17434642 14.10348408 31.13284665 6.88319898 9.296875 6.12109375 C8.33394531 6.08113281 7.37101563 6.04117188 6.37890625 6 C-22.06947766 5.39922668 -46.73842424 13.39237438 -70.85644531 28.09301758 C-72.703125 29.12109375 -72.703125 29.12109375 -75.703125 30.12109375 C-75.703125 30.78109375 -75.703125 31.44109375 -75.703125 32.12109375 C-77.34765625 33.59375 -77.34765625 33.59375 -79.515625 35.18359375 C-80.22332031 35.71082031 -80.93101562 36.23804688 -81.66015625 36.78125 C-83.703125 38.12109375 -83.703125 38.12109375 -86.703125 39.12109375 C-86.703125 39.78109375 -86.703125 40.44109375 -86.703125 41.12109375 C-92.18119687 43.19612097 -97.07017002 43.43624785 -102.875 43.58203125 C-105.77149139 43.7899261 -105.77149139 43.7899261 -106.875 45.83203125 C-107.14828125 46.58742187 -107.4215625 47.3428125 -107.703125 48.12109375 C-108.83992496 49.89064086 -110.00857425 51.6400075 -111.203125 53.37109375 C-111.8115625 54.263125 -112.42 55.15515625 -113.046875 56.07421875 C-113.86671875 57.08742188 -113.86671875 57.08742188 -114.703125 58.12109375 C-115.363125 58.12109375 -116.023125 58.12109375 -116.703125 58.12109375 C-116.703125 58.78109375 -116.703125 59.44109375 -116.703125 60.12109375 C-118.023125 60.12109375 -119.343125 60.12109375 -120.703125 60.12109375 C-120.16777788 55.61594187 -118.44363917 52.92609209 -115.765625 49.30859375 C-115.05535156 48.33277344 -114.34507812 47.35695312 -113.61328125 46.3515625 C-112.98292969 45.61550781 -112.35257813 44.87945312 -111.703125 44.12109375 C-111.043125 44.12109375 -110.383125 44.12109375 -109.703125 44.12109375 C-109.27 43.19296875 -109.27 43.19296875 -108.828125 42.24609375 C-107.703125 40.12109375 -107.703125 40.12109375 -105.703125 38.12109375 C-103.2077304 37.67868891 -100.77941187 37.33054623 -98.265625 37.05859375 C-92.91239172 36.46345683 -92.91239172 36.46345683 -87.703125 35.12109375 C-87.703125 34.46109375 -87.703125 33.80109375 -87.703125 33.12109375 C-87.043125 33.12109375 -86.383125 33.12109375 -85.703125 33.12109375 C-85.703125 32.46109375 -85.703125 31.80109375 -85.703125 31.12109375 C-61.46326695 10.87561412 -31.11762137 1.01755935 0 0 Z " fill="#CECECE" transform="translate(247.703125,113.87890625)"/>
<path d="M0 0 C2.734375 1.3984375 2.734375 1.3984375 5.75 3.375 C6.89455789 4.11136126 8.04046362 4.84563048 9.1875 5.578125 C9.79851562 5.97064453 10.40953125 6.36316406 11.0390625 6.76757812 C13.83164914 8.52267989 16.6784843 10.17856799 19.53027344 11.83520508 C22.40329245 13.50460229 25.26115371 15.19907896 28.11914062 16.89404297 C29.75176939 17.85403886 31.39818553 18.79051259 33.046875 19.72265625 C33.85640625 20.20605469 34.6659375 20.68945312 35.5 21.1875 C36.1703125 21.57292969 36.840625 21.95835937 37.53125 22.35546875 C41.27316653 26.54522104 40.1604695 34.6534162 40.16796875 40.07421875 C40.17296135 41.34360039 40.17296135 41.34360039 40.17805481 42.6386261 C40.18309027 44.416061 40.18546419 46.19350524 40.18530273 47.97094727 C40.18750184 50.68977223 40.20572744 53.4081991 40.22460938 56.12695312 C40.22754149 57.85937362 40.2295275 59.59179603 40.23046875 61.32421875 C40.23765427 62.13469162 40.24483978 62.94516449 40.25224304 63.78019714 C40.22326248 70.91942332 40.22326248 70.91942332 38 74 C35.9609375 75.3515625 35.9609375 75.3515625 33.375 76.625 C28.37395852 79.21106487 23.62370145 82.04837746 18.875 85.0625 C13.83000735 88.25602127 8.77584331 91.3491234 3.50390625 94.16015625 C1.99721259 94.91191989 1.99721259 94.91191989 1 96 C-4.18539949 96.56763249 -7.45478148 95.03491321 -11.75 92.375 C-12.66906128 91.82694702 -12.66906128 91.82694702 -13.60668945 91.26782227 C-14.84029701 90.53036931 -16.07060525 89.78736605 -17.29736328 89.03857422 C-18.7723342 88.13887157 -20.25827778 87.25720444 -21.74609375 86.37890625 C-27.09851603 83.21883613 -32.3369131 79.8927268 -37.5546875 76.515625 C-39.66264717 75.20909409 -41.76144952 74.06200999 -44 73 C-44 70.36 -44 67.72 -44 65 C-43.67 65 -43.34 65 -43 65 C-42.87625 66.134375 -42.7525 67.26875 -42.625 68.4375 C-42.41875 69.613125 -42.2125 70.78875 -42 72 C-41.34 72.33 -40.68 72.66 -40 73 C-39.92411635 66.20075608 -39.87147074 59.40162078 -39.83520508 52.60205078 C-39.82009147 50.28755615 -39.79960004 47.97309026 -39.77368164 45.65869141 C-39.73741159 42.33749304 -39.72029956 39.01667232 -39.70703125 35.6953125 C-39.69154739 34.65569366 -39.67606354 33.61607483 -39.66011047 32.54495239 C-39.65988388 31.58410736 -39.65965729 30.62326233 -39.65942383 29.63330078 C-39.64943108 28.36089035 -39.64943108 28.36089035 -39.63923645 27.06277466 C-39.75828842 26.38205902 -39.87734039 25.70134338 -40 25 C-40.99 24.34 -41.98 23.68 -43 23 C-41.42025391 22.07380859 -41.42025391 22.07380859 -39.80859375 21.12890625 C-32.46257343 16.8178011 -25.12286919 12.49634982 -17.8125 8.125 C-16.91519165 7.59048218 -16.91519165 7.59048218 -15.99975586 7.04516602 C-13.20529699 5.36975248 -10.52649576 3.65660546 -7.88671875 1.7421875 C-4.76256625 -0.1432956 -3.55127813 -0.65888494 0 0 Z M-10.4375 10.125 C-16.7387914 14.31068043 -23.13770361 17.79508136 -30 21 C-30 21.66 -30 22.32 -30 23 C-30.556875 23.103125 -31.11375 23.20625 -31.6875 23.3125 C-34.75039806 24.22309132 -36.53465936 24.89069977 -39 27 C-39.75007659 30.12585131 -39.62827371 33.21039269 -39.55859375 36.41015625 C-39.55626236 37.33340195 -39.55393097 38.25664764 -39.55152893 39.20787048 C-39.54178684 41.15893802 -39.51998907 43.10997704 -39.48706055 45.06079102 C-39.43763006 48.05462274 -39.42558013 51.04681265 -39.41992188 54.04101562 C-39.40583709 55.9349134 -39.38963312 57.82879685 -39.37109375 59.72265625 C-39.36573105 60.62162125 -39.36036835 61.52058624 -39.35484314 62.4467926 C-39.33885574 63.27783005 -39.32286835 64.10886749 -39.30639648 64.96508789 C-39.29575668 65.69772354 -39.28511688 66.43035919 -39.27415466 67.18519592 C-39.14588923 69.24981257 -39.14588923 69.24981257 -37 71 C-36.01 71 -35.02 71 -34 71 C-34 71.66 -34 72.32 -34 73 C-33.10474609 73.47566406 -33.10474609 73.47566406 -32.19140625 73.9609375 C-26.00953723 77.2861033 -19.92717398 80.75749262 -13.875 84.3125 C-12.73720093 84.97934814 -12.73720093 84.97934814 -11.57641602 85.65966797 C-10.5137854 86.28639404 -10.5137854 86.28639404 -9.4296875 86.92578125 C-8.79272949 87.30130127 -8.15577148 87.67682129 -7.49951172 88.0637207 C-6 89 -6 89 -5 90 C-0.42778556 90.57354633 1.90209784 89.11109831 5.625 86.5625 C10.7615894 83.0794702 10.7615894 83.0794702 14 82 C14 81.34 14 80.68 14 80 C14.51304687 79.91621094 15.02609375 79.83242188 15.5546875 79.74609375 C19.02167256 78.68827562 22.01092446 76.87636874 25.125 75.0625 C25.75792969 74.70220703 26.39085937 74.34191406 27.04296875 73.97070312 C29.63036512 72.47924216 31.87897973 71.12102027 34 69 C34.33175387 67.13264125 34.33175387 67.13264125 34.32226562 64.98095703 C34.34148071 64.15314728 34.3606958 63.32533752 34.38049316 62.47244263 C34.3932428 61.12870071 34.3932428 61.12870071 34.40625 59.7578125 C34.42335022 58.37793655 34.42335022 58.37793655 34.4407959 56.97018433 C34.45970646 55.02167368 34.47276809 53.07309891 34.48046875 51.12451172 C34.49988233 48.14307049 34.56190399 45.16438709 34.625 42.18359375 C34.63806023 40.29168307 34.64856112 38.39975264 34.65625 36.5078125 C34.6809436 35.61603302 34.70563721 34.72425354 34.7310791 33.80545044 C34.71370658 31.3912238 34.63526485 29.32966459 34 27 C30.86220195 24.14730989 29.25618175 23 25 23 C25 22.34 25 21.68 25 21 C24.33355469 20.64808594 23.66710937 20.29617187 22.98046875 19.93359375 C16.94836019 16.70240833 11.13751772 13.26076269 5.41015625 9.515625 C-1.27711412 5.31033991 -3.94111193 5.69996231 -10.4375 10.125 Z " fill="#CCCCCC" transform="translate(301,203)"/>
<path d="M0 0 C3.89440638 -0.25209137 6.03292091 0.25433293 9.3359375 2.30859375 C10.14643555 2.80456055 10.95693359 3.30052734 11.79199219 3.81152344 C12.64438477 4.3480957 13.49677734 4.88466797 14.375 5.4375 C16.15878699 6.53526542 17.94264189 7.6329205 19.7265625 8.73046875 C21.05349121 9.55490479 21.05349121 9.55490479 22.40722656 10.39599609 C26.16452762 12.7204281 29.95599859 14.98616824 33.75 17.25 C34.97416312 17.98403359 36.19814388 18.71837144 37.421875 19.453125 C38.27265625 19.96359375 39.1234375 20.4740625 40 21 C39.34 22.65 38.68 24.3 38 26 C37.236875 25.690625 36.47375 25.38125 35.6875 25.0625 C33.81210323 24.32106407 31.91315348 23.63771783 30 23 C30 22.34 30 21.68 30 21 C29.484375 20.91621094 28.96875 20.83242187 28.4375 20.74609375 C25.00639007 19.69586619 22.07052341 17.87719219 19 16.0625 C13.58374332 12.8771213 13.58374332 12.8771213 8 10 C8 9.34 8 8.68 8 8 C4.00074718 7.08287811 1.73224212 6.67300638 -2.0703125 8.37109375 C-3.07835937 9.05300781 -4.08640625 9.73492187 -5.125 10.4375 C-6.25487712 11.18149283 -7.38509581 11.92496714 -8.515625 12.66796875 C-9.08861328 13.05388184 -9.66160156 13.43979492 -10.25195312 13.83740234 C-13.08026984 15.71846997 -15.97742946 17.47740788 -18.875 19.25 C-19.94105469 19.90484375 -21.00710937 20.5596875 -22.10546875 21.234375 C-31.55752212 27 -31.55752212 27 -34 27 C-33.67 40.86 -33.34 54.72 -33 69 C-31.68 69.66 -30.36 70.32 -29 71 C-29 71.66 -29 72.32 -29 73 C-28.4740625 73.09023438 -27.948125 73.18046875 -27.40625 73.2734375 C-24.16229107 74.25294458 -21.40217578 75.91762693 -18.5 77.625 C-17.58166382 78.15371704 -17.58166382 78.15371704 -16.64477539 78.69311523 C-13.59500356 80.45446183 -10.57535911 82.25285178 -7.58984375 84.12109375 C-6.54957031 84.76175781 -5.50929687 85.40242188 -4.4375 86.0625 C-3.50808594 86.65160156 -2.57867187 87.24070312 -1.62109375 87.84765625 C1.5112363 89.22476112 2.79921746 89.0930777 6 88 C7.94747534 87.03175042 7.94747534 87.03175042 9.6875 85.875 C10.780625 85.25625 11.87375 84.6375 13 84 C13.99 84.495 13.99 84.495 15 85 C14.34 85.99 13.68 86.98 13 88 C13.99 88.66 14.98 89.32 16 90 C14.4691737 91.01651707 12.92473874 92.01255585 11.375 93 C10.51648438 93.556875 9.65796875 94.11375 8.7734375 94.6875 C5.47977752 96.24618979 3.60839297 96.45857626 0 96 C-2.91015625 94.70703125 -2.91015625 94.70703125 -6.0625 92.8125 C-6.64177246 92.46880371 -7.22104492 92.12510742 -7.81787109 91.77099609 C-9.89003301 90.53196594 -11.94574559 89.26850321 -14 88 C-14.86898926 87.46455566 -15.73797852 86.92911133 -16.63330078 86.37744141 C-20.39134467 84.05831469 -24.14762347 81.73675541 -27.89086914 79.39379883 C-28.75446045 78.85392334 -29.61805176 78.31404785 -30.5078125 77.7578125 C-31.27754395 77.2745752 -32.04727539 76.79133789 -32.84033203 76.29345703 C-34.83777912 75.09715648 -36.91751497 74.04124251 -39 73 C-39 56.83 -39 40.66 -39 24 C-38.34 24 -37.68 24 -37 24 C-37 23.34 -37 22.68 -37 22 C-36.37996094 21.67128906 -35.75992188 21.34257812 -35.12109375 21.00390625 C-29.43393428 17.94923108 -23.84473156 14.76223488 -18.3125 11.4375 C-17.67014404 11.05158691 -17.02778809 10.66567383 -16.3659668 10.26806641 C-12.95776826 8.21040225 -9.59094274 6.10326767 -6.25 3.9375 C-3 2 -3 2 0 2 C0 1.34 0 0.68 0 0 Z " fill="#D0D0D0" transform="translate(199,203)"/>
<path d="M0 0 C-0.71875 1.92578125 -0.71875 1.92578125 -2 4 C-4.03125 4.79296875 -4.03125 4.79296875 -6.5 5.1875 C-7.2940625 5.32542969 -8.088125 5.46335937 -8.90625 5.60546875 C-17.54839388 6.70756033 -26.03349513 7.19260708 -34.75 7.1875 C-35.89001465 7.18814453 -37.0300293 7.18878906 -38.20458984 7.18945312 C-46.30049294 7.1387168 -54.04860121 6.61919393 -62 5 C-62.33 3.35 -62.66 1.7 -63 0 C-62.1234375 0.0721875 -61.246875 0.144375 -60.34375 0.21875 C-43.52913864 1.44908742 -26.63142103 1.84719578 -9.88745117 -0.3762207 C-6.27778484 -0.84543295 -3.48770157 -1.02791867 0 0 Z " fill="#D7D7D7" transform="translate(285,379)"/>
<path d="M0 0 C0 0.66 0 1.32 0 2 C-2.69398432 3.34699216 -4.93573156 3.23135753 -7.94921875 3.359375 C-23.28302447 4.1235048 -37.79903564 5.74561012 -52.74951172 9.48095703 C-55.81961593 10.1890327 -58.87345774 10.62141189 -62 11 C-62.33 10.01 -62.66 9.02 -63 8 C-62.01 7.67 -61.02 7.34 -60 7 C-59.67 6.34 -59.34 5.68 -59 5 C-43.64121398 -1.01200187 -15.66673752 -7.47865017 0 0 Z " fill="#D5D5D5" transform="translate(264,116)"/>
<path d="M0 0 C0.66 0 1.32 0 2 0 C2 0.66 2 1.32 2 2 C2.78890625 2.13535156 2.78890625 2.13535156 3.59375 2.2734375 C6.83770893 3.25294458 9.59782422 4.91762693 12.5 6.625 C13.41833618 7.15371704 13.41833618 7.15371704 14.35522461 7.69311523 C17.40499644 9.45446183 20.42464089 11.25285178 23.41015625 13.12109375 C24.45042969 13.76175781 25.49070313 14.40242188 26.5625 15.0625 C27.49191406 15.65160156 28.42132813 16.24070312 29.37890625 16.84765625 C32.5112363 18.22476112 33.79921746 18.0930777 37 17 C38.94747534 16.03175042 38.94747534 16.03175042 40.6875 14.875 C42.3271875 13.946875 42.3271875 13.946875 44 13 C44.66 13.33 45.32 13.66 46 14 C45.34 14.99 44.68 15.98 44 17 C44.99 17.66 45.98 18.32 47 19 C45.4691737 20.01651707 43.92473874 21.01255585 42.375 22 C41.08722656 22.8353125 41.08722656 22.8353125 39.7734375 23.6875 C36.47716284 25.24742716 34.6113188 25.46298959 31 25 C28.0546875 23.671875 28.0546875 23.671875 24.875 21.75 C24.2960498 21.40517578 23.71709961 21.06035156 23.12060547 20.70507812 C21.8184268 19.9270744 20.51997092 19.14281756 19.22460938 18.35351562 C16.70493776 16.82047574 14.1735002 15.30799587 11.640625 13.796875 C6.75250243 10.87763952 1.87363392 7.94335047 -3 5 C-2.34 4.67 -1.68 4.34 -1 4 C-0.34786708 1.97536745 -0.34786708 1.97536745 0 0 Z " fill="#CDCDCD" transform="translate(168,274)"/>
<path d="M0 0 C2.3727209 0.94719336 3.71775813 1.49459338 4.9855957 3.76489258 C5.21335693 4.46767334 5.44111816 5.1704541 5.67578125 5.89453125 C5.94261719 6.67900635 6.20945312 7.46348145 6.484375 8.27172852 C6.75765625 9.11018311 7.0309375 9.9486377 7.3125 10.8125 C11.30122727 22.29412051 16.42022662 32.27859004 23.71484375 42.07421875 C25 44 25 44 25 46 C25.66 46 26.32 46 27 46 C27 47.32 27 48.64 27 50 C24.83203125 49.9375 24.83203125 49.9375 22 49 C19.98750188 46.68968826 18.35318615 44.54165859 16.6875 42 C16.21183594 41.29029053 15.73617187 40.58058105 15.24609375 39.84936523 C7.89074256 28.57041862 -0.88480313 13.86191576 0 0 Z " fill="#CACACA" transform="translate(110,288)"/>
<path d="M0 0 C0.66 0.33 1.32 0.66 2 1 C2 1.66 2 2.32 2 3 C4.97 3.495 4.97 3.495 8 4 C8 3.01 8 2.02 8 1 C10.46800047 2.15173355 12.04783565 3.04783565 14 5 C14.8417985 10.00648582 14.79840698 13.84935465 11.875 18.0625 C8.6247666 20.25287468 6.91718166 21 3 21 C-1.34986291 19.5500457 -3.4325645 18.85115325 -6 15 C-6.54522803 11.93524457 -6.54842924 9.06475161 -6 6 C-3.5625 3 -3.5625 3 -1 1 C-0.67 0.67 -0.34 0.34 0 0 Z M0.1875 6.75 C-1.20322166 8.89205396 -1.20322166 8.89205396 -0.8125 11.125 C-0.05339164 13.19171429 -0.05339164 13.19171429 2 15 C4.5 15.41666667 4.5 15.41666667 7 15 C9.29637779 12.24104365 9.29637779 12.24104365 8.75 9.4375 C8.16191948 6.84999433 8.16191948 6.84999433 6 5 C2.05969172 4.53693699 2.05969172 4.53693699 0.1875 6.75 Z " fill="#D2D2D2" transform="translate(246,313)"/>
<path d="M0 0 C1.98 0.66 3.96 1.32 6 2 C4.625 4 4.625 4 3 6 C2.34 6 1.68 6 1 6 C1 6.66 1 7.32 1 8 C-4.47807187 10.07502722 -9.36704502 10.3151541 -15.171875 10.4609375 C-18.06836639 10.66883235 -18.06836639 10.66883235 -19.171875 12.7109375 C-19.44515625 13.46632812 -19.7184375 14.22171875 -20 15 C-21.13679996 16.76954711 -22.30544925 18.51891375 -23.5 20.25 C-24.1084375 21.14203125 -24.716875 22.0340625 -25.34375 22.953125 C-26.16359375 23.96632812 -26.16359375 23.96632812 -27 25 C-27.66 25 -28.32 25 -29 25 C-29 25.66 -29 26.32 -29 27 C-30.32 27 -31.64 27 -33 27 C-32.46465288 22.49484812 -30.74051417 19.80499834 -28.0625 16.1875 C-27.35222656 15.21167969 -26.64195312 14.23585937 -25.91015625 13.23046875 C-25.27980469 12.49441406 -24.64945313 11.75835937 -24 11 C-23.34 11 -22.68 11 -22 11 C-21.566875 10.071875 -21.566875 10.071875 -21.125 9.125 C-20 7 -20 7 -18 5 C-15.5046054 4.55759516 -13.07628687 4.20945248 -10.5625 3.9375 C-5.20926672 3.34236308 -5.20926672 3.34236308 0 2 C0 1.34 0 0.68 0 0 Z " fill="#D5D5D5" transform="translate(160,147)"/>
<path d="M0 0 C0.66 0.99 1.32 1.98 2 3 C1.67 3.33 1.34 3.66 1 4 C0.9365166 5.35212691 0.94276607 6.70764037 0.97827148 8.06079102 C0.99836777 8.92160782 1.01846405 9.78242462 1.03916931 10.66932678 C1.06620438 11.60473801 1.09323944 12.54014923 1.12109375 13.50390625 C1.14470474 14.45692123 1.16831573 15.40993622 1.19264221 16.39183044 C1.26948387 19.44886421 1.35341947 22.50565758 1.4375 25.5625 C1.49070018 27.62954536 1.54344069 29.6966026 1.59570312 31.76367188 C1.72512662 36.84260141 1.86091442 41.92132624 2 47 C2.99 47.33 3.98 47.66 5 48 C4.67 49.32 4.34 50.64 4 52 C-1.875 51.125 -1.875 51.125 -3 50 C-3.09319449 48.4651703 -3.117458 46.92607918 -3.11352539 45.38842773 C-3.11344986 44.40748642 -3.11337433 43.4265451 -3.11329651 42.4158783 C-3.10813522 41.3492244 -3.10297394 40.2825705 -3.09765625 39.18359375 C-3.0962413 38.0974025 -3.09482635 37.01121124 -3.09336853 35.8921051 C-3.08775048 32.40720925 -3.07519492 28.92237658 -3.0625 25.4375 C-3.05748733 23.08138113 -3.05292402 20.72526126 -3.04882812 18.36914062 C-3.03777519 12.57940536 -3.02101951 6.78970719 -3 1 C-2.01 0.67 -1.02 0.34 0 0 Z " fill="#F0F1F0" transform="translate(163,226)"/>
<path d="M0 0 C2.0625 0.4375 2.0625 0.4375 4 1 C4.89150013 6.28703651 5.1210988 11.31693159 5.01953125 16.671875 C5.00540695 17.47610901 4.99128265 18.28034302 4.97673035 19.10894775 C4.94381702 20.79649622 4.90749625 22.48398137 4.86791992 24.17138672 C4.81236634 26.75621899 4.7840399 29.34052441 4.75585938 31.92578125 C4.7204311 33.57034957 4.68337888 35.21488389 4.64453125 36.859375 C4.64016556 37.6312616 4.63579987 38.40314819 4.63130188 39.19842529 C4.56176758 41.37402344 4.56176758 41.37402344 4 45 C1.96488953 46.72662354 1.96488953 46.72662354 0 48 C-0.16782889 41.32494807 -0.32779181 34.64974154 -0.48217773 27.97436523 C-0.5356848 25.70153492 -0.59102056 23.42874692 -0.64819336 21.15600586 C-0.72986216 17.89706551 -0.80504251 14.63803164 -0.87890625 11.37890625 C-0.90594131 10.35599991 -0.93297638 9.33309357 -0.96083069 8.27919006 C-0.98092697 7.33829025 -1.00102325 6.39739044 -1.02172852 5.42797852 C-1.04171402 4.59524918 -1.06169952 3.76251984 -1.08229065 2.90455627 C-1 1 -1 1 0 0 Z " fill="#F8F8F8" transform="translate(336,226)"/>
<path d="M0 0 C0.556875 0.226875 1.11375 0.45375 1.6875 0.6875 C1.0275 1.0175 0.3675 1.3475 -0.3125 1.6875 C-0.42851562 2.83798828 -0.42851562 2.83798828 -0.546875 4.01171875 C-1.3125 6.6875 -1.3125 6.6875 -4.015625 8.64453125 C-5.18909152 9.27960548 -6.37214509 9.89717488 -7.5625 10.5 C-8.83600091 11.17973957 -10.10810425 11.86210298 -11.37890625 12.546875 C-12.03004395 12.89427734 -12.68118164 13.24167969 -13.35205078 13.59960938 C-17.58870548 15.95060979 -21.61165659 18.67055036 -25.66796875 21.31640625 C-26.97701172 21.99509766 -26.97701172 21.99509766 -28.3125 22.6875 C-29.3025 22.3575 -30.2925 22.0275 -31.3125 21.6875 C-30.47601608 16.83589325 -28.20620167 15.33915747 -24.3125 12.5 C-21.3125 10.6875 -21.3125 10.6875 -18.3125 10.6875 C-18.3125 10.0275 -18.3125 9.3675 -18.3125 8.6875 C-17.20841797 8.09001953 -17.20841797 8.09001953 -16.08203125 7.48046875 C-15.10621094 6.95066406 -14.13039063 6.42085938 -13.125 5.875 C-11.68060547 5.09189453 -11.68060547 5.09189453 -10.20703125 4.29296875 C-8.30537658 3.23820483 -6.43183479 2.13075762 -4.59375 0.96875 C-2.3125 -0.3125 -2.3125 -0.3125 0 0 Z " fill="#D0D0D0" transform="translate(333.3125,274.3125)"/>
<path d="M0 0 C0.763125 0.20625 1.52625 0.4125 2.3125 0.625 C1.01321028 4.52286916 -0.34845028 4.78249319 -3.9375 6.625 C-8.05690486 8.75558095 -8.05690486 8.75558095 -12.046875 11.11328125 C-15.46828512 13.07198793 -19.0009482 14.43514439 -22.6875 15.8125 C-23.38617188 16.08513672 -24.08484375 16.35777344 -24.8046875 16.63867188 C-28.54700927 18.04733828 -31.67699169 18.97748608 -35.6875 18.625 C-35.43139648 16.74780273 -35.43139648 16.74780273 -34.6875 14.625 C-32.98852539 13.51586914 -32.98852539 13.51586914 -30.78515625 12.66015625 C-29.98142578 12.33740723 -29.17769531 12.0146582 -28.34960938 11.68212891 C-27.49173828 11.35390137 -26.63386719 11.02567383 -25.75 10.6875 C-24.01074892 9.99069713 -22.27245661 9.2914961 -20.53515625 8.58984375 C-19.69742676 8.25452637 -18.85969727 7.91920898 -17.99658203 7.57373047 C-13.04349569 5.53866032 -5.07610289 -0.70829343 0 0 Z " fill="#BEBEBE" transform="translate(326.6875,370.375)"/>
<path d="M0 0 C0 0.66 0 1.32 0 2 C-4.22914844 4.11457422 -9.77899806 3.18585828 -14.43115234 3.18530273 C-16.49207127 3.18749158 -18.5524569 3.20565983 -20.61328125 3.22460938 C-21.90621094 3.22654297 -23.19914063 3.22847656 -24.53125 3.23046875 C-25.72298828 3.23457764 -26.91472656 3.23868652 -28.14257812 3.24291992 C-31 3 -31 3 -33 1 C-24.6503958 -3.55432956 -8.5564753 -4.13127529 0 0 Z " fill="#E2E2E2" transform="translate(264,116)"/>
<path d="M0 0 C0.66 0.33 1.32 0.66 2 1 C1.67 1.66 1.34 2.32 1 3 C1.99 3.66 2.98 4.32 4 5 C1.48241883 5.98829417 -1.03854724 6.9657226 -3.5625 7.9375 C-4.26697266 8.21529297 -4.97144531 8.49308594 -5.69726562 8.77929688 C-10.16090498 10.4865875 -14.24380456 11.50625566 -19 12 C-18.67 11.01 -18.34 10.02 -18 9 C-20.64 9 -23.28 9 -26 9 C-22.55179841 7.0795907 -19.04955088 6.09534735 -15.25 5.0625 C-11.16487018 3.93057861 -7.18522129 2.76448206 -3.25 1.1875 C-2.1775 0.795625 -1.105 0.40375 0 0 Z " fill="#C7C7C7" transform="translate(302,370)"/>
<path d="M0 0 C0.33 0 0.66 0 1 0 C1.33 14.19 1.66 28.38 2 43 C4.79177569 40.20822431 4.31213484 38.36816428 4.4140625 34.4609375 C4.47207031 32.50800781 4.47207031 32.50800781 4.53125 30.515625 C4.56270763 29.13542138 4.59395491 27.75521296 4.625 26.375 C4.66317934 24.98695459 4.70223105 23.59893289 4.7421875 22.2109375 C4.83672943 18.80742815 4.92227897 15.40392835 5 12 C5.33 12 5.66 12 6 12 C6.04952706 16.34161825 6.08577954 20.68308575 6.10986328 25.02490234 C6.11990591 26.50116847 6.13354265 27.97741479 6.15087891 29.45361328 C6.17520421 31.57850034 6.1865004 33.70312385 6.1953125 35.828125 C6.20578613 37.1059082 6.21625977 38.38369141 6.22705078 39.70019531 C6.0142764 42.79251633 5.71742302 44.46519383 4 47 C1.75275943 48.36258026 -0.51724376 49.08046065 -3 50 C-2.125 43.125 -2.125 43.125 -1 42 C-0.92423181 40.00653894 -0.91696451 38.01041976 -0.9375 36.015625 C-0.94523437 34.76910156 -0.95296875 33.52257812 -0.9609375 32.23828125 C-0.9865201 29.62629755 -1.01254499 27.01431813 -1.0390625 24.40234375 C-1.08925141 16.21318713 -0.77291207 8.15353225 0 0 Z " fill="#888888" transform="translate(335,230)"/>
<path d="M0 0 C2.0625 0.4375 2.0625 0.4375 4 1 C3.47868283 5.95725232 1.14796788 9.28207993 -1.5625 13.3125 C-1.98724609 13.95767578 -2.41199219 14.60285156 -2.84960938 15.26757812 C-3.89266393 16.84973954 -4.94537872 18.42552501 -6 20 C-9.875 18.25 -9.875 18.25 -11 16 C-9.35555496 13.5199023 -7.70951649 11.04088908 -6.0625 8.5625 C-5.59392578 7.85544922 -5.12535156 7.14839844 -4.64257812 6.41992188 C-4.19462891 5.74638672 -3.74667969 5.07285156 -3.28515625 4.37890625 C-2.87144775 3.7557251 -2.45773926 3.13254395 -2.03149414 2.49047852 C-1 1 -1 1 0 0 Z " fill="#CDCDCD" transform="translate(141,168)"/>
<path d="M0 0 C0.99 0 1.98 0 3 0 C3.20496094 0.85464844 3.40992188 1.70929688 3.62109375 2.58984375 C3.89050781 3.69457031 4.15992188 4.79929688 4.4375 5.9375 C4.83775391 7.59072266 4.83775391 7.59072266 5.24609375 9.27734375 C5.72995725 11.89421254 5.72995725 11.89421254 7 13 C7.23481693 15.18292774 7.41363323 17.37203174 7.5625 19.5625 C7.64628906 20.76003906 7.73007812 21.95757812 7.81640625 23.19140625 C7.87699219 24.11824219 7.93757813 25.04507813 8 26 C6.68 26 5.36 26 4 26 C3.13094278 22.42010978 2.28237304 18.83566807 1.4375 15.25 C1.19064453 14.23421875 0.94378906 13.2184375 0.68945312 12.171875 C0.46064453 11.1921875 0.23183594 10.2125 -0.00390625 9.203125 C-0.32597046 7.85202637 -0.32597046 7.85202637 -0.65454102 6.47363281 C-1.00600309 3.95701536 -0.80151737 2.38749855 0 0 Z " fill="#B1B1B1" transform="translate(387,206)"/>
<path d="M0 0 C0.66 0.33 1.32 0.66 2 1 C2 6.94 2 12.88 2 19 C1.34 19 0.68 19 0 19 C0 20.65 0 22.3 0 24 C-0.99 24.33 -1.98 24.66 -3 25 C-3.0875127 21.77100574 -3.14056146 18.54231884 -3.1875 15.3125 C-3.21263672 14.40048828 -3.23777344 13.48847656 -3.26367188 12.54882812 C-3.31848438 7.52434845 -3.28571911 4.09636897 0 0 Z " fill="#EBEBEB" transform="translate(117,227)"/>
<path d="M0 0 C-0.3125 1.875 -0.3125 1.875 -1 4 C-4 6 -4 6 -7 6 C-7 6.66 -7 7.32 -7 8 C-13.75 12 -13.75 12 -16 12 C-16.33 11.34 -16.66 10.68 -17 10 C-17.99 9.34 -18.98 8.68 -20 8 C-17.61441771 6.46062426 -15.21875723 4.94392895 -12.8125 3.4375 C-11.80219727 2.78104492 -11.80219727 2.78104492 -10.77148438 2.11132812 C-4.53489142 -1.75231727 -4.53489142 -1.75231727 0 0 Z " fill="#E0E0E0" transform="translate(278,218)"/>
<path d="M0 0 C0.99 0 1.98 0 3 0 C3.66 0.99 4.32 1.98 5 3 C4.34 3 3.68 3 3 3 C2.7421875 3.55171875 2.484375 4.1034375 2.21875 4.671875 C0.82036875 7.34314175 -0.78763305 9.76851909 -2.5 12.25 C-3.1084375 13.14203125 -3.716875 14.0340625 -4.34375 14.953125 C-5.16359375 15.96632812 -5.16359375 15.96632812 -6 17 C-6.66 17 -7.32 17 -8 17 C-8 17.66 -8 18.32 -8 19 C-9.32 19 -10.64 19 -12 19 C-11.46465288 14.49484812 -9.74051417 11.80499834 -7.0625 8.1875 C-6.35222656 7.21167969 -5.64195312 6.23585937 -4.91015625 5.23046875 C-4.27980469 4.49441406 -3.64945313 3.75835937 -3 3 C-2.34 3 -1.68 3 -1 3 C-0.67 2.01 -0.34 1.02 0 0 Z " fill="#C3C3C3" transform="translate(139,155)"/>
<path d="M0 0 C0.99 0 1.98 0 3 0 C3 0.66 3 1.32 3 2 C3.99 2.33 4.98 2.66 6 3 C7.38671875 5.36328125 7.38671875 5.36328125 8.6875 8.3125 C9.34298828 9.76076172 9.34298828 9.76076172 10.01171875 11.23828125 C11 14 11 14 11 18 C8.70703125 17.82421875 8.70703125 17.82421875 6 17 C4.19921875 14.70703125 4.19921875 14.70703125 2.6875 11.8125 C1.91986328 10.39904297 1.91986328 10.39904297 1.13671875 8.95703125 C-0.09369845 5.75625523 -0.21649025 3.39839351 0 0 Z " fill="#D6D6D6" transform="translate(125,301)"/>
<path d="M0 0 C2.74277578 3.19990508 4.6302836 6.00499382 6 10 C6.66 10 7.32 10 8 10 C8.99 11.98 9.98 13.96 11 16 C10.01 16.33 9.02 16.66 8 17 C8.33 17.99 8.66 18.98 9 20 C8.34 20 7.68 20 7 20 C5.40963798 17.94677142 3.94301709 15.90299994 2.5 13.75 C2.09652344 13.16347656 1.69304687 12.57695312 1.27734375 11.97265625 C-0.69869567 9.07055215 -2.54321758 6.19858748 -4 3 C-2.68 3 -1.36 3 0 3 C0 2.01 0 1.02 0 0 Z " fill="#CFCFCF" transform="translate(136,316)"/>
<path d="M0 0 C0.66 0.33 1.32 0.66 2 1 C2 1.66 2 2.32 2 3 C1.34 3 0.68 3 0 3 C0 3.99 0 4.98 0 6 C-1.65 6.66 -3.3 7.32 -5 8 C-5 8.66 -5 9.32 -5 10 C-8.41831915 12.5393228 -10.75776898 13.3636198 -15 13 C-15.33 12.34 -15.66 11.68 -16 11 C-11.76855962 6.21663261 -6.07449133 2.02483044 0 0 Z " fill="#D8D8D8" transform="translate(177,136)"/>
<path d="M0 0 C2 0.3125 2 0.3125 4 1 C5.55420014 4.10840028 4.60417518 7.17066597 4.125 10.5 C4.03347656 11.18964844 3.94195312 11.87929688 3.84765625 12.58984375 C3.13672928 17.72654144 3.13672928 17.72654144 2 20 C0.68 19.67 -0.64 19.34 -2 19 C-1.85982174 16.02046641 -1.71313658 13.04150696 -1.5625 10.0625 C-1.52318359 9.21236328 -1.48386719 8.36222656 -1.44335938 7.48632812 C-1.40146484 6.67744141 -1.35957031 5.86855469 -1.31640625 5.03515625 C-1.27974854 4.2862915 -1.24309082 3.53742676 -1.20532227 2.76586914 C-1 1 -1 1 0 0 Z " fill="#D1D1D1" transform="translate(382,260)"/>
<path d="M0 0 C0 0.66 0 1.32 0 2 C-12.71641791 9.68283582 -12.71641791 9.68283582 -20 9 C-19.95703125 7.20703125 -19.95703125 7.20703125 -19 5 C-16.53221544 3.67531468 -14.2883288 2.65824901 -11.6875 1.6875 C-11.01009766 1.41099609 -10.33269531 1.13449219 -9.63476562 0.84960938 C-3.491029 -1.53461686 -3.491029 -1.53461686 0 0 Z " fill="#B7B7B7" transform="translate(311,380)"/>
<path d="M0 0 C2 2 2 2 4 5 C4.99 4.67 5.98 4.34 7 4 C7.8320582 9.72040011 8.12036664 15.22240116 8 21 C6.35 20.67 4.7 20.34 3 20 C2.49685437 17.22970414 1.99736162 14.4588348 1.5 11.6875 C1.35691406 10.90181641 1.21382813 10.11613281 1.06640625 9.30664062 C0.93105469 8.54931641 0.79570312 7.79199219 0.65625 7.01171875 C0.53056641 6.31522217 0.40488281 5.61872559 0.27539062 4.90112305 C0 3 0 3 0 0 Z " fill="#A7A7A6" transform="translate(378,219)"/>
<path d="M0 0 C0.66 0.33 1.32 0.66 2 1 C1.8359375 3.2578125 1.8359375 3.2578125 1 6 C-1.3984375 8.0546875 -1.3984375 8.0546875 -4.375 9.875 C-5.35210937 10.49117188 -6.32921875 11.10734375 -7.3359375 11.7421875 C-10 13 -10 13 -13 12 C-12.4242979 8.66092784 -11.52470985 7.22468827 -9 5 C-7.51036358 4.03346229 -5.98674677 3.11778238 -4.4375 2.25 C-3.65246094 1.80140625 -2.86742187 1.3528125 -2.05859375 0.890625 C-1.37925781 0.59671875 -0.69992187 0.3028125 0 0 Z " fill="#DBDBDB" transform="translate(315,284)"/>
<path d="M0 0 C0.33 0 0.66 0 1 0 C1.03738281 1.04800781 1.07476562 2.09601563 1.11328125 3.17578125 C1.17894515 4.55472305 1.24539235 5.93362771 1.3125 7.3125 C1.33505859 8.00279297 1.35761719 8.69308594 1.38085938 9.40429688 C1.50638339 13.36532376 1.50638339 13.36532376 3.46875 16.65625 C3.9740625 17.0996875 4.479375 17.543125 5 18 C5.73046875 20.48046875 5.73046875 20.48046875 6.1875 23.1875 C6.34605469 24.08855469 6.50460938 24.98960937 6.66796875 25.91796875 C6.77753906 26.60503906 6.88710937 27.29210937 7 28 C3.93109813 29.53445094 1.29905734 28.54984289 -2 28 C-1.505 26.515 -1.505 26.515 -1 25 C-0.85060226 23.08234406 -0.75189717 21.16053478 -0.68359375 19.23828125 C-0.64169922 18.12001953 -0.59980469 17.00175781 -0.55664062 15.84960938 C-0.51732422 14.68236328 -0.47800781 13.51511719 -0.4375 12.3125 C-0.39431641 11.13365234 -0.35113281 9.95480469 -0.30664062 8.74023438 C-0.20048824 5.82694117 -0.09843758 2.91356243 0 0 Z " fill="#F2F3F2" transform="translate(248,289)"/>
<path d="M0 0 C1.79296875 0.5 1.79296875 0.5 4 2 C5.42042418 4.55233663 6.35237512 7.24716075 7.3125 10 C7.58900391 10.73734375 7.86550781 11.4746875 8.15039062 12.234375 C8.83778246 14.13206127 9.42654045 16.06483467 10 18 C9.67 18.66 9.34 19.32 9 20 C8.67 19.01 8.34 18.02 8 17 C7.34 17 6.68 17 6 17 C5.67 18.32 5.34 19.64 5 21 C4.15229544 18.81716075 3.32192453 16.63003921 2.5 14.4375 C2.0359375 13.21933594 1.571875 12.00117188 1.09375 10.74609375 C-0.01223121 6.9581081 -0.20185162 3.92096767 0 0 Z " fill="#C7C7C7" transform="translate(110,288)"/>
<path d="M0 0 C3.625 -0.1875 3.625 -0.1875 7 0 C7.625 3.375 7.625 3.375 8 7 C7.34 7.66 6.68 8.32 6 9 C2.375 8.625 2.375 8.625 -1 8 C-1.625 5.6875 -1.625 5.6875 -2 3 C-1.34 2.01 -0.68 1.02 0 0 Z " fill="#CCCCCC" transform="translate(381,246)"/>
<path d="M0 0 C3.25548753 3.02295271 5.68977058 6.20462309 8 10 C8 10.66 8 11.32 8 12 C8.66 12 9.32 12 10 12 C10 13.32 10 14.64 10 16 C6.67869056 15.70067922 5.2940615 15.29680973 2.91015625 12.890625 C2.30042969 12.01921875 1.69070312 11.1478125 1.0625 10.25 C0.43472656 9.38890625 -0.19304687 8.5278125 -0.83984375 7.640625 C-2 5 -2 5 -1.19140625 2.171875 C-0.79824219 1.45515625 -0.40507813 0.7384375 0 0 Z " fill="#C3C3C3" transform="translate(127,322)"/>
<path d="M0 0 C1.05960938 0.00676758 1.05960938 0.00676758 2.140625 0.01367188 C3.88545275 0.02546125 5.630237 0.04339676 7.375 0.0625 C7.375 1.0525 7.375 2.0425 7.375 3.0625 C-4.14664009 5.35862756 -4.14664009 5.35862756 -9.625 5.0625 C-9.625 3.7425 -9.625 2.4225 -9.625 1.0625 C-6.55966836 -0.47016582 -3.35745728 -0.04026471 0 0 Z " fill="#B3B3B3" transform="translate(233.625,105.9375)"/>
<path d="M0 0 C4.34242429 4.34242429 4.7444669 8.13551546 5 14 C3.68 14.33 2.36 14.66 1 15 C-1.21854707 10.37802694 -2.38281159 7.23175837 -2 2 C-1.34 2 -0.68 2 0 2 C0 1.34 0 0.68 0 0 Z " fill="#E4E4E4" transform="translate(379,210)"/>
<path d="M0 0 C0.66 0.33 1.32 0.66 2 1 C2 3.94885691 1.3157194 6.3685612 0 9 C-0.66 9 -1.32 9 -2 9 C-2.66 10.32 -3.32 11.64 -4 13 C-4.66 12.67 -5.32 12.34 -6 12 C-6.3125 9.3125 -6.3125 9.3125 -6 6 C-3.5625 3.1875 -3.5625 3.1875 -1 1 C-0.67 0.67 -0.34 0.34 0 0 Z " fill="#D8D8D8" transform="translate(246,313)"/>
<path d="M0 0 C0.33 1.98 0.66 3.96 1 6 C-4.2734375 9.22265625 -4.2734375 9.22265625 -6 10 C-6.66 9.67 -7.32 9.34 -8 9 C-8 8.34 -8 7.68 -8 7 C-8.66 6.34 -9.32 5.68 -10 5 C-8.71186658 4.16121545 -7.41936744 3.32913217 -6.125 2.5 C-5.40570313 2.0359375 -4.68640625 1.571875 -3.9453125 1.09375 C-2 0 -2 0 0 0 Z " fill="#C5C5C5" transform="translate(285,211)"/>
<path d="M0 0 C1.32 0.33 2.64 0.66 4 1 C2.68775452 4.93673644 1.08089673 7.22719294 -2 10 C-2.99 9.67 -3.98 9.34 -5 9 C-4.49396008 6.83125748 -4.00016187 5.00032373 -3 3 C-2.34 3 -1.68 3 -1 3 C-0.67 2.01 -0.34 1.02 0 0 Z " fill="#B4B4B4" transform="translate(366,331)"/>
<path d="M0 0 C-0.33 0.99 -0.66 1.98 -1 3 C0.32 3.66 1.64 4.32 3 5 C-3.75 9 -3.75 9 -6 9 C-6.33 8.34 -6.66 7.68 -7 7 C-7.99 6.34 -8.98 5.68 -10 5 C-8.71186658 4.16121545 -7.41936744 3.32913217 -6.125 2.5 C-5.40570313 2.0359375 -4.68640625 1.571875 -3.9453125 1.09375 C-2 0 -2 0 0 0 Z " fill="#C7C7C7" transform="translate(268,221)"/>
<path d="M0 0 C0.66 0.33 1.32 0.66 2 1 C3.49713908 5.72780763 4.51750995 9.14396816 3 14 C2.01 13.67 1.02 13.34 0 13 C-0.19397476 11.02145742 -0.38001321 9.0421352 -0.5625 7.0625 C-0.66691406 5.96035156 -0.77132813 4.85820312 -0.87890625 3.72265625 C-0.91886719 2.82417969 -0.95882813 1.92570313 -1 1 C-0.67 0.67 -0.34 0.34 0 0 Z " fill="#EBEBEB" transform="translate(391,219)"/>
<path d="M0 0 C1.89453748 2.84180622 3.00192814 5.31564815 4.1875 8.5 C4.55230469 9.4590625 4.91710937 10.418125 5.29296875 11.40625 C6 14 6 14 5 17 C5 16.34 5 15.68 5 15 C4.01 15 3.02 15 2 15 C1.67 15.99 1.34 16.98 1 18 C0.34 15.69 -0.32 13.38 -1 11 C-0.34 10.67 0.32 10.34 1 10 C0.67 9.34 0.34 8.68 0 8 C-0.13415472 5.3276379 -0.04318541 2.67749512 0 0 Z " fill="#D1D1D1" transform="translate(123,286)"/>
<path d="M0 0 C-0.99 0.66 -1.98 1.32 -3 2 C-1.26043342 3.73956658 1.1936622 3.37190386 3.5625 3.5625 C5.08037109 3.68818359 5.08037109 3.68818359 6.62890625 3.81640625 C7.80259766 3.90728516 7.80259766 3.90728516 9 4 C9 4.33 9 4.66 9 5 C0.585 5.495 0.585 5.495 -8 6 C-8 4.68 -8 3.36 -8 2 C-8.66 1.67 -9.32 1.34 -10 1 C-6.61981469 -0.04005702 -3.5219721 -0.08004482 0 0 Z " fill="#B7B7B7" transform="translate(235,115)"/>
<path d="M0 0 C4.28806873 0.47645208 6.26647487 1.65902484 9 5 C9 5.66 9 6.32 9 7 C6.8125 7.3125 6.8125 7.3125 4 7 C1.1875 4.5 1.1875 4.5 -1 2 C-0.67 1.34 -0.34 0.68 0 0 Z " fill="#AEAEAE" transform="translate(334,133)"/>
<path d="M0 0 C-1.01176437 3.40320742 -1.64843582 4.75725331 -4.625 6.8125 C-5.40875 7.204375 -6.1925 7.59625 -7 8 C-6.979375 7.21625 -6.95875 6.4325 -6.9375 5.625 C-6.81315937 3.01885039 -6.81315937 3.01885039 -8 1 C-4.93251126 -0.86240388 -3.40254489 -1.2151946 0 0 Z " fill="#CACACA" transform="translate(323,282)"/>
<path d="M0 0 C2.97550031 3.0684847 3.96474513 4.46236331 4.25 8.8125 C4.1675 9.864375 4.085 10.91625 4 12 C2.68 12 1.36 12 0 12 C0 8.04 0 4.08 0 0 Z " fill="#E7E7E5" transform="translate(381,227)"/>
<path d="M0 0 C0.66 0 1.32 0 2 0 C4.8394052 3.67452438 6 5.26886581 6 10 C4.125 9.75 4.125 9.75 2 9 C-0.11103658 6.04454879 -0.19785783 3.56144099 0 0 Z " fill="#DBDBDB" transform="translate(116,305)"/>
<path d="M0 0 C0.66 0.33 1.32 0.66 2 1 C1.34 2.65 0.68 4.3 0 6 C-0.66 6 -1.32 6 -2 6 C-2 6.66 -2 7.32 -2 8 C-3.32 8 -4.64 8 -6 8 C-5.8125 5.6875 -5.8125 5.6875 -5 3 C-2.5625 1.125 -2.5625 1.125 0 0 Z " fill="#AEAEAE" transform="translate(133,166)"/>
<path d="M0 0 C1.79068573 2.6860286 2.66055791 4.6626589 3.625 7.6875 C3.88539062 8.49574219 4.14578125 9.30398438 4.4140625 10.13671875 C4.60742188 10.75160156 4.80078125 11.36648438 5 12 C4.34 11.67 3.68 11.34 3 11 C3 10.34 3 9.68 3 9 C2.34 9 1.68 9 1 9 C0.67 10.32 0.34 11.64 0 13 C-1.25664978 10.09399739 -2 8.20395416 -2 5 C-1.34 5 -0.68 5 0 5 C0 3.35 0 1.7 0 0 Z " fill="#A9A9A9" transform="translate(115,296)"/>
<path d="M0 0 C0 0.66 0 1.32 0 2 C-5.2734375 5.22265625 -5.2734375 5.22265625 -7 6 C-7.66 5.67 -8.32 5.34 -9 5 C-9 4.01 -9 3.02 -9 2 C-4.13793103 -1.24137931 -4.13793103 -1.24137931 0 0 Z " fill="#C5C5C5" transform="translate(311,380)"/>
<path d="M0 0 C2.375 -0.1875 2.375 -0.1875 5 0 C7 3 7 3 6.625 5.1875 C6.41875 5.785625 6.2125 6.38375 6 7 C3.53199953 5.84826645 1.95216435 4.95216435 0 3 C0 2.01 0 1.02 0 0 Z " fill="#ACACAC" transform="translate(143,347)"/>
<path d="M0 0 C3.08089673 2.77280706 4.68775452 5.06326356 6 9 C4.68 8.34 3.36 7.68 2 7 C1.67 7.66 1.34 8.32 1 9 C-0.625 7.3125 -0.625 7.3125 -2 5 C-1.1875 2.25 -1.1875 2.25 0 0 Z " fill="#B3B3B3" transform="translate(127,322)"/>
<path d="M0 0 C-0.66 1.65 -1.32 3.3 -2 5 C-3.65 5 -5.3 5 -7 5 C-7 2 -7 2 -6 0 C-3 -1 -3 -1 0 0 Z " fill="#E1E1DF" transform="translate(310,369)"/>
<path d="M0 0 C1.4540625 0.0309375 1.4540625 0.0309375 2.9375 0.0625 C2.9375 1.0525 2.9375 2.0425 2.9375 3.0625 C1.9375 4.0625 1.9375 4.0625 -1.125 4.125 C-2.094375 4.104375 -3.06375 4.08375 -4.0625 4.0625 C-4.0625 0.08290816 -4.0625 0.08290816 0 0 Z " fill="#C0BFC0" transform="translate(282.0625,387.9375)"/>
<path d="M0 0 C0.33 1.98 0.66 3.96 1 6 C-0.65 6.66 -2.3 7.32 -4 8 C-4.66 6.35 -5.32 4.7 -6 3 C-1.125 0 -1.125 0 0 0 Z " fill="#C6C6C4" transform="translate(325,358)"/>
<path d="M0 0 C2.125 0.375 2.125 0.375 4 1 C3.67 2.65 3.34 4.3 3 6 C2.34 5.34 1.68 4.68 1 4 C-0.32 4.99 -1.64 5.98 -3 7 C-2.25 2.25 -2.25 2.25 0 0 Z " fill="#BCBCBC" transform="translate(141,168)"/>
<path d="M0 0 C1.98 0.66 3.96 1.32 6 2 C4.625 4 4.625 4 3 6 C2.34 6 1.68 6 1 6 C0.67 6.66 0.34 7.32 0 8 C-1 5 -1 5 -1 4 C-1.66 3.67 -2.32 3.34 -3 3 C-2.01 2.67 -1.02 2.34 0 2 C0 1.34 0 0.68 0 0 Z " fill="#B7B7B7" transform="translate(160,147)"/>
<path d="M0 0 C3.63 0 7.26 0 11 0 C11 0.99 11 1.98 11 3 C8.36 3 5.72 3 3 3 C3 2.34 3 1.68 3 1 C2.01 0.67 1.02 0.34 0 0 Z " fill="#DFDFDF" transform="translate(230,106)"/>
<path d="M0 0 C0.99 0 1.98 0 3 0 C3 2.64 3 5.28 3 8 C2.01 7.67 1.02 7.34 0 7 C-0.38133299 5.0085944 -0.71325582 3.00720923 -1 1 C-0.67 0.67 -0.34 0.34 0 0 Z " fill="#C5C5C5" transform="translate(387,206)"/>
<path d="M0 0 C0.99 0.66 1.98 1.32 3 2 C2.67 2.66 2.34 3.32 2 4 C1.34 4 0.68 4 0 4 C0 4.66 0 5.32 0 6 C-1.32 6.33 -2.64 6.66 -4 7 C-4 4 -4 4 -2 1.8125 C-1.34 1.214375 -0.68 0.61625 0 0 Z " fill="#E2E2E2" transform="translate(347,341)"/>
<path d="M0 0 C1.5 1.375 1.5 1.375 3 3 C3 3.66 3 4.32 3 5 C2.01 5.495 2.01 5.495 1 6 C0.01 7.485 0.01 7.485 -1 9 C-1.99 7.02 -2.98 5.04 -4 3 C-2.68 3 -1.36 3 0 3 C0 2.01 0 1.02 0 0 Z " fill="#BABABA" transform="translate(136,316)"/>
<path d="M0 0 C2.9375 0.375 2.9375 0.375 6 1 C6.33 1.66 6.66 2.32 7 3 C6.34 3 5.68 3 5 3 C4.67 3.66 4.34 4.32 4 5 C1.525 4.01 1.525 4.01 -1 3 C-0.67 2.01 -0.34 1.02 0 0 Z " fill="#DCDCDC" transform="translate(317,215)"/>
<path d="M0 0 C0.99 0.33 1.98 0.66 3 1 C2.6875 3.375 2.6875 3.375 2 6 C1.01 6.66 0.02 7.32 -1 8 C-1.93065133 5.39417629 -2.14917407 4.35801776 -1.0625 1.75 C-0.711875 1.1725 -0.36125 0.595 0 0 Z " fill="#E0E0E0" transform="translate(353,332)"/>
<path d="M0 0 C0.75 1.6875 0.75 1.6875 1 4 C-0.9375 6.75 -0.9375 6.75 -3 9 C-3.89674777 6.48910624 -4.13172674 5.35464891 -3.1875 2.8125 C-2 1 -2 1 0 0 Z " fill="#FBFBFB" transform="translate(245,171)"/>
<path d="M0 0 C0.66 0.33 1.32 0.66 2 1 C1.34 1.66 0.68 2.32 0 3 C0.99 3.66 1.98 4.32 3 5 C1.1875 6.0625 1.1875 6.0625 -1 7 C-1.99 6.67 -2.98 6.34 -4 6 C-4 5.01 -4 4.02 -4 3 C-2 1.3125 -2 1.3125 0 0 Z " fill="#8B8B8B" transform="translate(313,376)"/>
<path d="M0 0 C1.90318884 2.85478326 2.4619099 4.41941308 3.125 7.6875 C3.29257813 8.49574219 3.46015625 9.30398438 3.6328125 10.13671875 C3.75398438 10.75160156 3.87515625 11.36648438 4 12 C3.67 11.34 3.34 10.68 3 10 C2.01 9.67 1.02 9.34 0 9 C0 6.03 0 3.06 0 0 Z " fill="#9E9E9E" transform="translate(123,286)"/>
<path d="M0 0 C0.33 0.99 0.66 1.98 1 3 C1.99 2.67 2.98 2.34 4 2 C3.67 3.65 3.34 5.3 3 7 C2.01 6.67 1.02 6.34 0 6 C0 4.02 0 2.04 0 0 Z " fill="#BABABA" transform="translate(391,226)"/>
<path d="M0 0 C2 2 2 2 2 5 C1.01 5.33 0.02 5.66 -1 6 C-1.66 5.34 -2.32 4.68 -3 4 C-2.67 3.01 -2.34 2.02 -2 1 C-1.34 0.67 -0.68 0.34 0 0 Z " fill="#E5E5E5" transform="translate(287,210)"/>
<path d="M0 0 C1.65 0.33 3.3 0.66 5 1 C5 1.66 5 2.32 5 3 C2.69 3.33 0.38 3.66 -2 4 C-1.34 2.68 -0.68 1.36 0 0 Z " fill="#FAFAFA" transform="translate(259,115)"/>
<path d="M0 0 C4.875 1.75 4.875 1.75 6 4 C4.35 3.67 2.7 3.34 1 3 C0.67 2.01 0.34 1.02 0 0 Z M1 4 C1.66 4.99 2.32 5.98 3 7 C2.01 6.67 1.02 6.34 0 6 C0.33 5.34 0.66 4.68 1 4 Z " fill="#9C9C9C" transform="translate(175,358)"/>
<path d="M0 0 C1.0625 1.8125 1.0625 1.8125 2 4 C1.67 4.99 1.34 5.98 1 7 C0.01 6.67 -0.98 6.34 -2 6 C-1.49396008 3.83125748 -1.00016187 2.00032373 0 0 Z " fill="#969696" transform="translate(363,334)"/>
<path d="M0 0 C0.66 0.33 1.32 0.66 2 1 C2 2.32 2 3.64 2 5 C1.34 5 0.68 5 0 5 C-0.5625 3.0625 -0.5625 3.0625 -1 1 C-0.67 0.67 -0.34 0.34 0 0 Z M-4 3 C-3.01 3.33 -2.02 3.66 -1 4 C-1.99 4.66 -2.98 5.32 -4 6 C-4 5.01 -4 4.02 -4 3 Z " fill="#DFDFDF" transform="translate(370,308)"/>
<path d="M0 0 C0.99 0.33 1.98 0.66 3 1 C3.6875 3.0625 3.6875 3.0625 4 5 C2.68 5 1.36 5 0 5 C0 4.34 0 3.68 0 3 C-0.66 3 -1.32 3 -2 3 C-2 2.34 -2 1.68 -2 1 C-1.34 0.67 -0.68 0.34 0 0 Z " fill="#E7E7E7" transform="translate(368,185)"/>
<path d="" fill="#000000" transform="translate(0,0)"/>
<path d="" fill="#000000" transform="translate(0,0)"/>
<path d="" fill="#000000" transform="translate(0,0)"/>
<path d="" fill="#000000" transform="translate(0,0)"/>
<path d="" fill="#000000" transform="translate(0,0)"/>
<path d="" fill="#000000" transform="translate(0,0)"/>
<path d="" fill="#000000" transform="translate(0,0)"/>
<path d="" fill="#000000" transform="translate(0,0)"/>
<path d="" fill="#000000" transform="translate(0,0)"/>
<path d="" fill="#000000" transform="translate(0,0)"/>
<path d="" fill="#000000" transform="translate(0,0)"/>
<path d="" fill="#000000" transform="translate(0,0)"/>
<path d="" fill="#000000" transform="translate(0,0)"/>
<path d="" fill="#000000" transform="translate(0,0)"/>
<path d="" fill="#000000" transform="translate(0,0)"/>
<path d="" fill="#000000" transform="translate(0,0)"/>
<path d="" fill="#000000" transform="translate(0,0)"/>
<path d="" fill="#000000" transform="translate(0,0)"/>
<path d="" fill="#000000" transform="translate(0,0)"/>
<path d="" fill="#000000" transform="translate(0,0)"/>
<path d="" fill="#000000" transform="translate(0,0)"/>
<path d="" fill="#000000" transform="translate(0,0)"/>
<path d="" fill="#000000" transform="translate(0,0)"/>
<path d="" fill="#000000" transform="translate(0,0)"/>
<path d="" fill="#000000" transform="translate(0,0)"/>
<path d="" fill="#000000" transform="translate(0,0)"/>
<path d="" fill="#000000" transform="translate(0,0)"/>
<path d="" fill="#000000" transform="translate(0,0)"/>
<path d="" fill="#000000" transform="translate(0,0)"/>
<path d="" fill="#000000" transform="translate(0,0)"/>
<path d="" fill="#000000" transform="translate(0,0)"/>
<path d="" fill="#000000" transform="translate(0,0)"/>
<path d="" fill="#000000" transform="translate(0,0)"/>
<path d="" fill="#000000" transform="translate(0,0)"/>
<path d="" fill="#000000" transform="translate(0,0)"/>
<path d="" fill="#000000" transform="translate(0,0)"/>
<path d="" fill="#000000" transform="translate(0,0)"/>
<path d="" fill="#000000" transform="translate(0,0)"/>
<path d="" fill="#000000" transform="translate(0,0)"/>
<path d="" fill="#000000" transform="translate(0,0)"/>
<path d="" fill="#000000" transform="translate(0,0)"/>
<path d="" fill="#000000" transform="translate(0,0)"/>
<path d="" fill="#000000" transform="translate(0,0)"/>
<path d="" fill="#000000" transform="translate(0,0)"/>
<path d="" fill="#000000" transform="translate(0,0)"/>
<path d="" fill="#000000" transform="translate(0,0)"/>
<path d="" fill="#000000" transform="translate(0,0)"/>
<path d="" fill="#000000" transform="translate(0,0)"/>
<path d="" fill="#000000" transform="translate(0,0)"/>
<path d="" fill="#000000" transform="translate(0,0)"/>
<path d="" fill="#000000" transform="translate(0,0)"/>
<path d="" fill="#000000" transform="translate(0,0)"/>
<path d="" fill="#000000" transform="translate(0,0)"/>
<path d="" fill="#000000" transform="translate(0,0)"/>
<path d="" fill="#000000" transform="translate(0,0)"/>
<path d="" fill="#000000" transform="translate(0,0)"/>
<path d="" fill="#000000" transform="translate(0,0)"/>
<path d="" fill="#000000" transform="translate(0,0)"/>
<path d="" fill="#000000" transform="translate(0,0)"/>
<path d="" fill="#000000" transform="translate(0,0)"/>
<path d="" fill="#000000" transform="translate(0,0)"/>
<path d="" fill="#000000" transform="translate(0,0)"/>
<path d="" fill="#000000" transform="translate(0,0)"/>
<path d="" fill="#000000" transform="translate(0,0)"/>
<path d="" fill="#000000" transform="translate(0,0)"/>
<path d="" fill="#000000" transform="translate(0,0)"/>
<path d="" fill="#000000" transform="translate(0,0)"/>
<path d="" fill="#000000" transform="translate(0,0)"/>
<path d="" fill="#000000" transform="translate(0,0)"/>
<path d="" fill="#000000" transform="translate(0,0)"/>
<path d="" fill="#000000" transform="translate(0,0)"/>
<path d="" fill="#000000" transform="translate(0,0)"/>
<path d="" fill="#000000" transform="translate(0,0)"/>
<path d="" fill="#000000" transform="translate(0,0)"/>
<path d="" fill="#000000" transform="translate(0,0)"/>
<path d="" fill="#000000" transform="translate(0,0)"/>
<path d="" fill="#000000" transform="translate(0,0)"/>
<path d="" fill="#000000" transform="translate(0,0)"/>
<path d="" fill="#000000" transform="translate(0,0)"/>
<path d="" fill="#000000" transform="translate(0,0)"/>
<path d="" fill="#000000" transform="translate(0,0)"/>
<path d="" fill="#000000" transform="translate(0,0)"/>
<path d="" fill="#000000" transform="translate(0,0)"/>
<path d="" fill="#00FF00" transform="translate(0,0)"/>
<path d="" fill="#000000" transform="translate(0,0)"/>
<path d="" fill="#000000" transform="translate(0,0)"/>
<path d="" fill="#000000" transform="translate(0,0)"/>
<path d="" fill="#000000" transform="translate(0,0)"/>
<path d="" fill="#000000" transform="translate(0,0)"/>
<path d="" fill="#000000" transform="translate(0,0)"/>
</svg>
